# xmcd
#
# Track frame offsets: 
#        150
#        19138
#        37004
#        55353
#        72172
#        86309
#        110964
#        129034
#        146356
#        166726
#
# Disc length: 2464 seconds
#
# Revision: 0
# Processed by: cddbd v1.5.2PL0 Copyright (c) Steve Scherf et al.
# Submitted via: ExactAudioCopy v1.2
#
DISCID=80099e0a
DTITLE=Johnny and the MoTones - Highway 51
DYEAR=2018
DGENRE=Blues
TTITLE0=Going to Carolina
TTITLE1=Baby Can You Shake It
TTITLE2=Highway 51
TTITLE3=Make It
TTITLE4=Long Live the Pack
TTITLE5=1974 VW Bus
TTITLE6=Tell Me Something
TTITLE7=Rain
TTITLE8=Who's That Rocker
TTITLE9=Wait for Me
EXTD=
EXTT0=
EXTT1=
EXTT2=
EXTT3=
EXTT4=
EXTT5=
EXTT6=
EXTT7=
EXTT8=
EXTT9=
PLAYORDER=
